<mxfile host="app.diagrams.net" agent="Mozilla/5.0 (Windows NT 10.0; Win64; x64) AppleWebKit/537.36 (KHTML, like Gecko) Chrome/129.0.0.0 Safari/537.36" version="24.7.17">
  <diagram name="PÃ¡gina-1" id="XTw4HJLzmhRJIE8WZyx5">
    <mxGraphModel dx="1381" dy="853" grid="1" gridSize="10" guides="1" tooltips="1" connect="1" arrows="1" fold="1" page="1" pageScale="1" pageWidth="2339" pageHeight="3300" math="0" shadow="0">
      <root>
        <mxCell id="0" />
        <mxCell id="1" parent="0" />
        <mxCell id="XqiXbIV1NQWLEeTD5v8z-11" value="HOTEL" style="whiteSpace=wrap;html=1;align=center;" vertex="1" parent="1">
          <mxGeometry x="870" y="300" width="100" height="40" as="geometry" />
        </mxCell>
        <mxCell id="XqiXbIV1NQWLEeTD5v8z-12" value="LOCALIZACAO" style="whiteSpace=wrap;html=1;align=center;" vertex="1" parent="1">
          <mxGeometry x="1250" y="300" width="100" height="40" as="geometry" />
        </mxCell>
        <mxCell id="XqiXbIV1NQWLEeTD5v8z-13" value="QUARTOS" style="whiteSpace=wrap;html=1;align=center;" vertex="1" parent="1">
          <mxGeometry x="510" y="300" width="100" height="40" as="geometry" />
        </mxCell>
        <mxCell id="XqiXbIV1NQWLEeTD5v8z-14" value="CUSTO" style="whiteSpace=wrap;html=1;align=center;" vertex="1" parent="1">
          <mxGeometry x="510" y="620" width="100" height="40" as="geometry" />
        </mxCell>
        <mxCell id="XqiXbIV1NQWLEeTD5v8z-15" value="POLITICA" style="whiteSpace=wrap;html=1;align=center;" vertex="1" parent="1">
          <mxGeometry x="720" y="620" width="100" height="40" as="geometry" />
        </mxCell>
        <mxCell id="XqiXbIV1NQWLEeTD5v8z-16" value="INSTALACOES" style="whiteSpace=wrap;html=1;align=center;" vertex="1" parent="1">
          <mxGeometry x="870" y="620" width="100" height="40" as="geometry" />
        </mxCell>
        <mxCell id="XqiXbIV1NQWLEeTD5v8z-17" value="GERENTE" style="whiteSpace=wrap;html=1;align=center;" vertex="1" parent="1">
          <mxGeometry x="1120" y="620" width="100" height="40" as="geometry" />
        </mxCell>
        <mxCell id="XqiXbIV1NQWLEeTD5v8z-18" value="IS_AT" style="shape=rhombus;perimeter=rhombusPerimeter;whiteSpace=wrap;html=1;align=center;" vertex="1" parent="1">
          <mxGeometry x="1040" y="290" width="120" height="60" as="geometry" />
        </mxCell>
        <mxCell id="XqiXbIV1NQWLEeTD5v8z-19" value="HAS_ROOMS" style="shape=rhombus;perimeter=rhombusPerimeter;whiteSpace=wrap;html=1;align=center;" vertex="1" parent="1">
          <mxGeometry x="680" y="290" width="120" height="60" as="geometry" />
        </mxCell>
        <mxCell id="XqiXbIV1NQWLEeTD5v8z-20" value="CUSTO_POR_NOITE" style="shape=rhombus;perimeter=rhombusPerimeter;whiteSpace=wrap;html=1;align=center;" vertex="1" parent="1">
          <mxGeometry x="485" y="460" width="150" height="60" as="geometry" />
        </mxCell>
        <mxCell id="XqiXbIV1NQWLEeTD5v8z-21" value="HAS_POLICY" style="shape=rhombus;perimeter=rhombusPerimeter;whiteSpace=wrap;html=1;align=center;" vertex="1" parent="1">
          <mxGeometry x="710" y="460" width="120" height="60" as="geometry" />
        </mxCell>
        <mxCell id="XqiXbIV1NQWLEeTD5v8z-22" value="HAS_FACILIDADES" style="shape=rhombus;perimeter=rhombusPerimeter;whiteSpace=wrap;html=1;align=center;" vertex="1" parent="1">
          <mxGeometry x="845" y="460" width="150" height="60" as="geometry" />
        </mxCell>
        <mxCell id="XqiXbIV1NQWLEeTD5v8z-23" value="RUN_BY" style="shape=rhombus;perimeter=rhombusPerimeter;whiteSpace=wrap;html=1;align=center;" vertex="1" parent="1">
          <mxGeometry x="1110" y="460" width="120" height="60" as="geometry" />
        </mxCell>
        <mxCell id="XqiXbIV1NQWLEeTD5v8z-24" value="Tipo_de" style="ellipse;whiteSpace=wrap;html=1;align=center;fontStyle=4;" vertex="1" parent="1">
          <mxGeometry x="420" y="200" width="100" height="40" as="geometry" />
        </mxCell>
        <mxCell id="XqiXbIV1NQWLEeTD5v8z-25" value="Porcentagem_de_disponibilidade" style="ellipse;whiteSpace=wrap;html=1;align=center;" vertex="1" parent="1">
          <mxGeometry x="530" y="200" width="200" height="40" as="geometry" />
        </mxCell>
        <mxCell id="XqiXbIV1NQWLEeTD5v8z-27" value="Nome_e_sobrenome" style="ellipse;whiteSpace=wrap;html=1;align=center;fontStyle=4;" vertex="1" parent="1">
          <mxGeometry x="760" y="200" width="150" height="40" as="geometry" />
        </mxCell>
        <mxCell id="XqiXbIV1NQWLEeTD5v8z-28" value="Classificacao" style="ellipse;whiteSpace=wrap;html=1;align=center;" vertex="1" parent="1">
          <mxGeometry x="940" y="200" width="100" height="40" as="geometry" />
        </mxCell>
        <mxCell id="XqiXbIV1NQWLEeTD5v8z-29" value="Rua" style="ellipse;whiteSpace=wrap;html=1;align=center;fontStyle=4;" vertex="1" parent="1">
          <mxGeometry x="1150" y="180" width="100" height="40" as="geometry" />
        </mxCell>
        <mxCell id="XqiXbIV1NQWLEeTD5v8z-30" value="Cidade" style="ellipse;whiteSpace=wrap;html=1;align=center;fontStyle=4;" vertex="1" parent="1">
          <mxGeometry x="1270" y="180" width="100" height="40" as="geometry" />
        </mxCell>
        <mxCell id="XqiXbIV1NQWLEeTD5v8z-31" value="Codigo_postal" style="ellipse;whiteSpace=wrap;html=1;align=center;fontStyle=4;" vertex="1" parent="1">
          <mxGeometry x="1390" y="210" width="100" height="40" as="geometry" />
        </mxCell>
        <mxCell id="XqiXbIV1NQWLEeTD5v8z-33" value="Dist_da_cidade" style="ellipse;whiteSpace=wrap;html=1;align=center;" vertex="1" parent="1">
          <mxGeometry x="1410" y="300" width="100" height="40" as="geometry" />
        </mxCell>
        <mxCell id="XqiXbIV1NQWLEeTD5v8z-34" value="Uma_vez_que" style="ellipse;whiteSpace=wrap;html=1;align=center;" vertex="1" parent="1">
          <mxGeometry x="1370" y="471.5" width="100" height="40" as="geometry" />
        </mxCell>
        <mxCell id="XqiXbIV1NQWLEeTD5v8z-35" value="Id_da_pessoa" style="ellipse;whiteSpace=wrap;html=1;align=center;fontStyle=4;" vertex="1" parent="1">
          <mxGeometry x="1360" y="670" width="100" height="40" as="geometry" />
        </mxCell>
        <mxCell id="XqiXbIV1NQWLEeTD5v8z-36" value="Nomear" style="ellipse;whiteSpace=wrap;html=1;align=center;" vertex="1" parent="1">
          <mxGeometry x="1300" y="750" width="100" height="40" as="geometry" />
        </mxCell>
        <mxCell id="XqiXbIV1NQWLEeTD5v8z-37" value="Tipo_de_desporto" style="ellipse;whiteSpace=wrap;html=1;align=center;" vertex="1" parent="1">
          <mxGeometry x="1150" y="750" width="110" height="40" as="geometry" />
        </mxCell>
        <mxCell id="XqiXbIV1NQWLEeTD5v8z-38" value="Bar_tipo" style="ellipse;whiteSpace=wrap;html=1;align=center;" vertex="1" parent="1">
          <mxGeometry x="1040" y="750" width="100" height="40" as="geometry" />
        </mxCell>
        <mxCell id="XqiXbIV1NQWLEeTD5v8z-39" value="Rest_type" style="ellipse;whiteSpace=wrap;html=1;align=center;" vertex="1" parent="1">
          <mxGeometry x="930" y="760" width="100" height="40" as="geometry" />
        </mxCell>
        <mxCell id="XqiXbIV1NQWLEeTD5v8z-40" value="Cancelamento_periodo" style="ellipse;whiteSpace=wrap;html=1;align=center;" vertex="1" parent="1">
          <mxGeometry x="800" y="790" width="140" height="40" as="geometry" />
        </mxCell>
        <mxCell id="XqiXbIV1NQWLEeTD5v8z-41" value="Check_out_time" style="ellipse;whiteSpace=wrap;html=1;align=center;" vertex="1" parent="1">
          <mxGeometry x="720" y="760" width="100" height="40" as="geometry" />
        </mxCell>
        <mxCell id="XqiXbIV1NQWLEeTD5v8z-42" value="Check_in_time" style="ellipse;whiteSpace=wrap;html=1;align=center;" vertex="1" parent="1">
          <mxGeometry x="590" y="760" width="100" height="40" as="geometry" />
        </mxCell>
        <mxCell id="XqiXbIV1NQWLEeTD5v8z-43" value="Quantia" style="ellipse;whiteSpace=wrap;html=1;align=center;" vertex="1" parent="1">
          <mxGeometry x="330" y="550" width="100" height="40" as="geometry" />
        </mxCell>
        <mxCell id="XqiXbIV1NQWLEeTD5v8z-44" value="Tipos_de_pagamento" style="ellipse;whiteSpace=wrap;html=1;align=center;" vertex="1" parent="1">
          <mxGeometry x="300" y="690" width="130" height="40" as="geometry" />
        </mxCell>
        <mxCell id="XqiXbIV1NQWLEeTD5v8z-45" value="" style="shape=link;html=1;rounded=0;exitX=1;exitY=0.5;exitDx=0;exitDy=0;entryX=0;entryY=0.5;entryDx=0;entryDy=0;" edge="1" parent="1" source="XqiXbIV1NQWLEeTD5v8z-19" target="XqiXbIV1NQWLEeTD5v8z-11">
          <mxGeometry relative="1" as="geometry">
            <mxPoint x="910" y="530" as="sourcePoint" />
            <mxPoint x="1070" y="530" as="targetPoint" />
          </mxGeometry>
        </mxCell>
        <mxCell id="XqiXbIV1NQWLEeTD5v8z-46" value="1" style="resizable=0;html=1;whiteSpace=wrap;align=right;verticalAlign=bottom;" connectable="0" vertex="1" parent="XqiXbIV1NQWLEeTD5v8z-45">
          <mxGeometry x="1" relative="1" as="geometry" />
        </mxCell>
        <mxCell id="XqiXbIV1NQWLEeTD5v8z-47" value="" style="shape=link;html=1;rounded=0;entryX=1;entryY=0.5;entryDx=0;entryDy=0;exitX=0;exitY=0.5;exitDx=0;exitDy=0;" edge="1" parent="1" source="XqiXbIV1NQWLEeTD5v8z-19" target="XqiXbIV1NQWLEeTD5v8z-13">
          <mxGeometry relative="1" as="geometry">
            <mxPoint x="1010" y="530" as="sourcePoint" />
            <mxPoint x="1070" y="530" as="targetPoint" />
          </mxGeometry>
        </mxCell>
        <mxCell id="XqiXbIV1NQWLEeTD5v8z-48" value="N" style="resizable=0;html=1;whiteSpace=wrap;align=right;verticalAlign=bottom;" connectable="0" vertex="1" parent="XqiXbIV1NQWLEeTD5v8z-47">
          <mxGeometry x="1" relative="1" as="geometry">
            <mxPoint x="20" as="offset" />
          </mxGeometry>
        </mxCell>
        <mxCell id="XqiXbIV1NQWLEeTD5v8z-49" value="" style="shape=link;html=1;rounded=0;entryX=1;entryY=0.5;entryDx=0;entryDy=0;exitX=0.058;exitY=0.511;exitDx=0;exitDy=0;exitPerimeter=0;" edge="1" parent="1" source="XqiXbIV1NQWLEeTD5v8z-18" target="XqiXbIV1NQWLEeTD5v8z-11">
          <mxGeometry relative="1" as="geometry">
            <mxPoint x="910" y="530" as="sourcePoint" />
            <mxPoint x="1070" y="530" as="targetPoint" />
          </mxGeometry>
        </mxCell>
        <mxCell id="XqiXbIV1NQWLEeTD5v8z-50" value="1" style="resizable=0;html=1;whiteSpace=wrap;align=right;verticalAlign=bottom;" connectable="0" vertex="1" parent="XqiXbIV1NQWLEeTD5v8z-49">
          <mxGeometry x="1" relative="1" as="geometry">
            <mxPoint x="10" as="offset" />
          </mxGeometry>
        </mxCell>
        <mxCell id="XqiXbIV1NQWLEeTD5v8z-51" value="" style="endArrow=none;html=1;rounded=0;exitX=1;exitY=0.5;exitDx=0;exitDy=0;entryX=0;entryY=0.5;entryDx=0;entryDy=0;" edge="1" parent="1" source="XqiXbIV1NQWLEeTD5v8z-18" target="XqiXbIV1NQWLEeTD5v8z-12">
          <mxGeometry relative="1" as="geometry">
            <mxPoint x="910" y="530" as="sourcePoint" />
            <mxPoint x="1070" y="530" as="targetPoint" />
          </mxGeometry>
        </mxCell>
        <mxCell id="XqiXbIV1NQWLEeTD5v8z-52" value="N" style="resizable=0;html=1;whiteSpace=wrap;align=right;verticalAlign=bottom;" connectable="0" vertex="1" parent="XqiXbIV1NQWLEeTD5v8z-51">
          <mxGeometry x="1" relative="1" as="geometry" />
        </mxCell>
        <mxCell id="XqiXbIV1NQWLEeTD5v8z-53" value="" style="endArrow=none;html=1;rounded=0;exitX=0.5;exitY=1;exitDx=0;exitDy=0;entryX=0.5;entryY=0;entryDx=0;entryDy=0;" edge="1" parent="1" source="XqiXbIV1NQWLEeTD5v8z-24" target="XqiXbIV1NQWLEeTD5v8z-13">
          <mxGeometry relative="1" as="geometry">
            <mxPoint x="910" y="530" as="sourcePoint" />
            <mxPoint x="1070" y="530" as="targetPoint" />
          </mxGeometry>
        </mxCell>
        <mxCell id="XqiXbIV1NQWLEeTD5v8z-54" value="" style="endArrow=none;html=1;rounded=0;entryX=0.5;entryY=1;entryDx=0;entryDy=0;exitX=0.75;exitY=0;exitDx=0;exitDy=0;" edge="1" parent="1" source="XqiXbIV1NQWLEeTD5v8z-13" target="XqiXbIV1NQWLEeTD5v8z-25">
          <mxGeometry relative="1" as="geometry">
            <mxPoint x="910" y="530" as="sourcePoint" />
            <mxPoint x="1070" y="530" as="targetPoint" />
          </mxGeometry>
        </mxCell>
        <mxCell id="XqiXbIV1NQWLEeTD5v8z-55" value="" style="endArrow=none;html=1;rounded=0;entryX=0.5;entryY=1;entryDx=0;entryDy=0;exitX=0.5;exitY=0;exitDx=0;exitDy=0;" edge="1" parent="1" source="XqiXbIV1NQWLEeTD5v8z-11" target="XqiXbIV1NQWLEeTD5v8z-27">
          <mxGeometry relative="1" as="geometry">
            <mxPoint x="595" y="310" as="sourcePoint" />
            <mxPoint x="640" y="250" as="targetPoint" />
          </mxGeometry>
        </mxCell>
        <mxCell id="XqiXbIV1NQWLEeTD5v8z-56" value="" style="endArrow=none;html=1;rounded=0;entryX=0.5;entryY=1;entryDx=0;entryDy=0;exitX=0.75;exitY=0;exitDx=0;exitDy=0;" edge="1" parent="1" source="XqiXbIV1NQWLEeTD5v8z-11" target="XqiXbIV1NQWLEeTD5v8z-28">
          <mxGeometry relative="1" as="geometry">
            <mxPoint x="605" y="320" as="sourcePoint" />
            <mxPoint x="650" y="260" as="targetPoint" />
          </mxGeometry>
        </mxCell>
        <mxCell id="XqiXbIV1NQWLEeTD5v8z-57" value="" style="endArrow=none;html=1;rounded=0;entryX=0.5;entryY=1;entryDx=0;entryDy=0;exitX=0.25;exitY=0;exitDx=0;exitDy=0;" edge="1" parent="1" source="XqiXbIV1NQWLEeTD5v8z-12" target="XqiXbIV1NQWLEeTD5v8z-29">
          <mxGeometry relative="1" as="geometry">
            <mxPoint x="910" y="530" as="sourcePoint" />
            <mxPoint x="1070" y="530" as="targetPoint" />
          </mxGeometry>
        </mxCell>
        <mxCell id="XqiXbIV1NQWLEeTD5v8z-58" value="" style="endArrow=none;html=1;rounded=0;entryX=0.5;entryY=0;entryDx=0;entryDy=0;exitX=0.5;exitY=1;exitDx=0;exitDy=0;" edge="1" parent="1" source="XqiXbIV1NQWLEeTD5v8z-30" target="XqiXbIV1NQWLEeTD5v8z-12">
          <mxGeometry relative="1" as="geometry">
            <mxPoint x="1285" y="310" as="sourcePoint" />
            <mxPoint x="1210" y="230" as="targetPoint" />
          </mxGeometry>
        </mxCell>
        <mxCell id="XqiXbIV1NQWLEeTD5v8z-59" value="" style="endArrow=none;html=1;rounded=0;entryX=0.75;entryY=0;entryDx=0;entryDy=0;exitX=0;exitY=1;exitDx=0;exitDy=0;" edge="1" parent="1" source="XqiXbIV1NQWLEeTD5v8z-31" target="XqiXbIV1NQWLEeTD5v8z-12">
          <mxGeometry relative="1" as="geometry">
            <mxPoint x="1295" y="320" as="sourcePoint" />
            <mxPoint x="1220" y="240" as="targetPoint" />
          </mxGeometry>
        </mxCell>
        <mxCell id="XqiXbIV1NQWLEeTD5v8z-60" value="" style="endArrow=none;html=1;rounded=0;entryX=1;entryY=0.5;entryDx=0;entryDy=0;exitX=0;exitY=0.5;exitDx=0;exitDy=0;" edge="1" parent="1" source="XqiXbIV1NQWLEeTD5v8z-33" target="XqiXbIV1NQWLEeTD5v8z-12">
          <mxGeometry relative="1" as="geometry">
            <mxPoint x="1305" y="330" as="sourcePoint" />
            <mxPoint x="1230" y="250" as="targetPoint" />
          </mxGeometry>
        </mxCell>
        <mxCell id="XqiXbIV1NQWLEeTD5v8z-61" value="" style="endArrow=none;html=1;rounded=0;entryX=0.948;entryY=0.823;entryDx=0;entryDy=0;entryPerimeter=0;exitX=0;exitY=0.5;exitDx=0;exitDy=0;" edge="1" parent="1" source="XqiXbIV1NQWLEeTD5v8z-14" target="XqiXbIV1NQWLEeTD5v8z-43">
          <mxGeometry relative="1" as="geometry">
            <mxPoint x="910" y="530" as="sourcePoint" />
            <mxPoint x="1070" y="530" as="targetPoint" />
          </mxGeometry>
        </mxCell>
        <mxCell id="XqiXbIV1NQWLEeTD5v8z-62" value="" style="endArrow=none;html=1;rounded=0;entryX=0;entryY=0.5;entryDx=0;entryDy=0;exitX=1;exitY=0.5;exitDx=0;exitDy=0;" edge="1" parent="1" source="XqiXbIV1NQWLEeTD5v8z-44" target="XqiXbIV1NQWLEeTD5v8z-14">
          <mxGeometry relative="1" as="geometry">
            <mxPoint x="520" y="650" as="sourcePoint" />
            <mxPoint x="435" y="593" as="targetPoint" />
          </mxGeometry>
        </mxCell>
        <mxCell id="XqiXbIV1NQWLEeTD5v8z-63" value="" style="endArrow=none;html=1;rounded=0;entryX=0.5;entryY=1;entryDx=0;entryDy=0;exitX=0.5;exitY=0;exitDx=0;exitDy=0;" edge="1" parent="1" source="XqiXbIV1NQWLEeTD5v8z-42" target="XqiXbIV1NQWLEeTD5v8z-15">
          <mxGeometry relative="1" as="geometry">
            <mxPoint x="530" y="660" as="sourcePoint" />
            <mxPoint x="445" y="603" as="targetPoint" />
          </mxGeometry>
        </mxCell>
        <mxCell id="XqiXbIV1NQWLEeTD5v8z-64" value="" style="endArrow=none;html=1;rounded=0;entryX=0.5;entryY=1;entryDx=0;entryDy=0;exitX=0.5;exitY=0;exitDx=0;exitDy=0;" edge="1" parent="1" source="XqiXbIV1NQWLEeTD5v8z-41" target="XqiXbIV1NQWLEeTD5v8z-15">
          <mxGeometry relative="1" as="geometry">
            <mxPoint x="540" y="670" as="sourcePoint" />
            <mxPoint x="455" y="613" as="targetPoint" />
          </mxGeometry>
        </mxCell>
        <mxCell id="XqiXbIV1NQWLEeTD5v8z-65" value="" style="endArrow=none;html=1;rounded=0;entryX=0.5;entryY=1;entryDx=0;entryDy=0;exitX=0.5;exitY=0;exitDx=0;exitDy=0;" edge="1" parent="1" source="XqiXbIV1NQWLEeTD5v8z-40" target="XqiXbIV1NQWLEeTD5v8z-15">
          <mxGeometry relative="1" as="geometry">
            <mxPoint x="550" y="680" as="sourcePoint" />
            <mxPoint x="465" y="623" as="targetPoint" />
          </mxGeometry>
        </mxCell>
        <mxCell id="XqiXbIV1NQWLEeTD5v8z-66" value="" style="endArrow=none;html=1;rounded=0;exitX=0.5;exitY=1;exitDx=0;exitDy=0;entryX=0.5;entryY=0;entryDx=0;entryDy=0;" edge="1" parent="1" source="XqiXbIV1NQWLEeTD5v8z-16" target="XqiXbIV1NQWLEeTD5v8z-39">
          <mxGeometry relative="1" as="geometry">
            <mxPoint x="930" y="670" as="sourcePoint" />
            <mxPoint x="1070" y="530" as="targetPoint" />
          </mxGeometry>
        </mxCell>
        <mxCell id="XqiXbIV1NQWLEeTD5v8z-67" value="" style="endArrow=none;html=1;rounded=0;exitX=0.5;exitY=1;exitDx=0;exitDy=0;entryX=0.5;entryY=0;entryDx=0;entryDy=0;" edge="1" parent="1" source="XqiXbIV1NQWLEeTD5v8z-16" target="XqiXbIV1NQWLEeTD5v8z-38">
          <mxGeometry relative="1" as="geometry">
            <mxPoint x="940" y="670" as="sourcePoint" />
            <mxPoint x="990" y="770" as="targetPoint" />
          </mxGeometry>
        </mxCell>
        <mxCell id="XqiXbIV1NQWLEeTD5v8z-68" value="" style="endArrow=none;html=1;rounded=0;exitX=0.5;exitY=1;exitDx=0;exitDy=0;entryX=0;entryY=0;entryDx=0;entryDy=0;" edge="1" parent="1" source="XqiXbIV1NQWLEeTD5v8z-16" target="XqiXbIV1NQWLEeTD5v8z-37">
          <mxGeometry relative="1" as="geometry">
            <mxPoint x="950" y="680" as="sourcePoint" />
            <mxPoint x="1000" y="780" as="targetPoint" />
          </mxGeometry>
        </mxCell>
        <mxCell id="XqiXbIV1NQWLEeTD5v8z-69" value="" style="endArrow=none;html=1;rounded=0;entryX=0;entryY=0;entryDx=0;entryDy=0;exitX=0.75;exitY=1;exitDx=0;exitDy=0;" edge="1" parent="1" source="XqiXbIV1NQWLEeTD5v8z-17" target="XqiXbIV1NQWLEeTD5v8z-36">
          <mxGeometry relative="1" as="geometry">
            <mxPoint x="910" y="530" as="sourcePoint" />
            <mxPoint x="1070" y="530" as="targetPoint" />
          </mxGeometry>
        </mxCell>
        <mxCell id="XqiXbIV1NQWLEeTD5v8z-70" value="" style="endArrow=none;html=1;rounded=0;entryX=0;entryY=0.5;entryDx=0;entryDy=0;exitX=1;exitY=0.5;exitDx=0;exitDy=0;" edge="1" parent="1" source="XqiXbIV1NQWLEeTD5v8z-17" target="XqiXbIV1NQWLEeTD5v8z-35">
          <mxGeometry relative="1" as="geometry">
            <mxPoint x="1205" y="670" as="sourcePoint" />
            <mxPoint x="1325" y="766" as="targetPoint" />
          </mxGeometry>
        </mxCell>
        <mxCell id="XqiXbIV1NQWLEeTD5v8z-71" value="" style="endArrow=none;html=1;rounded=0;entryX=0;entryY=0.5;entryDx=0;entryDy=0;exitX=1;exitY=0.5;exitDx=0;exitDy=0;" edge="1" parent="1" source="XqiXbIV1NQWLEeTD5v8z-23" target="XqiXbIV1NQWLEeTD5v8z-34">
          <mxGeometry relative="1" as="geometry">
            <mxPoint x="910" y="530" as="sourcePoint" />
            <mxPoint x="1070" y="530" as="targetPoint" />
          </mxGeometry>
        </mxCell>
        <mxCell id="XqiXbIV1NQWLEeTD5v8z-72" value="" style="shape=link;html=1;rounded=0;entryX=0.5;entryY=1;entryDx=0;entryDy=0;exitX=0.5;exitY=0;exitDx=0;exitDy=0;" edge="1" parent="1" source="XqiXbIV1NQWLEeTD5v8z-20" target="XqiXbIV1NQWLEeTD5v8z-13">
          <mxGeometry relative="1" as="geometry">
            <mxPoint x="910" y="530" as="sourcePoint" />
            <mxPoint x="1070" y="530" as="targetPoint" />
          </mxGeometry>
        </mxCell>
        <mxCell id="XqiXbIV1NQWLEeTD5v8z-73" value="N" style="resizable=0;html=1;whiteSpace=wrap;align=right;verticalAlign=bottom;" connectable="0" vertex="1" parent="XqiXbIV1NQWLEeTD5v8z-72">
          <mxGeometry x="1" relative="1" as="geometry">
            <mxPoint x="-10" y="30" as="offset" />
          </mxGeometry>
        </mxCell>
        <mxCell id="XqiXbIV1NQWLEeTD5v8z-74" value="" style="endArrow=none;html=1;rounded=0;entryX=0.5;entryY=1;entryDx=0;entryDy=0;exitX=0.5;exitY=0;exitDx=0;exitDy=0;" edge="1" parent="1" source="XqiXbIV1NQWLEeTD5v8z-14" target="XqiXbIV1NQWLEeTD5v8z-20">
          <mxGeometry relative="1" as="geometry">
            <mxPoint x="910" y="530" as="sourcePoint" />
            <mxPoint x="1070" y="530" as="targetPoint" />
          </mxGeometry>
        </mxCell>
        <mxCell id="XqiXbIV1NQWLEeTD5v8z-75" value="M" style="resizable=0;html=1;whiteSpace=wrap;align=left;verticalAlign=bottom;" connectable="0" vertex="1" parent="XqiXbIV1NQWLEeTD5v8z-74">
          <mxGeometry x="-1" relative="1" as="geometry" />
        </mxCell>
        <mxCell id="XqiXbIV1NQWLEeTD5v8z-77" value="" style="shape=link;html=1;rounded=0;entryX=0.5;entryY=1;entryDx=0;entryDy=0;exitX=0.5;exitY=0;exitDx=0;exitDy=0;" edge="1" parent="1" source="XqiXbIV1NQWLEeTD5v8z-21" target="XqiXbIV1NQWLEeTD5v8z-11">
          <mxGeometry relative="1" as="geometry">
            <mxPoint x="910" y="530" as="sourcePoint" />
            <mxPoint x="1070" y="530" as="targetPoint" />
          </mxGeometry>
        </mxCell>
        <mxCell id="XqiXbIV1NQWLEeTD5v8z-78" value="1" style="resizable=0;html=1;whiteSpace=wrap;align=right;verticalAlign=bottom;" connectable="0" vertex="1" parent="XqiXbIV1NQWLEeTD5v8z-77">
          <mxGeometry x="1" relative="1" as="geometry">
            <mxPoint x="10" y="30" as="offset" />
          </mxGeometry>
        </mxCell>
        <mxCell id="XqiXbIV1NQWLEeTD5v8z-79" value="" style="endArrow=none;html=1;rounded=0;entryX=0.5;entryY=0;entryDx=0;entryDy=0;exitX=0.5;exitY=1;exitDx=0;exitDy=0;" edge="1" parent="1" source="XqiXbIV1NQWLEeTD5v8z-21" target="XqiXbIV1NQWLEeTD5v8z-15">
          <mxGeometry relative="1" as="geometry">
            <mxPoint x="910" y="530" as="sourcePoint" />
            <mxPoint x="1070" y="530" as="targetPoint" />
          </mxGeometry>
        </mxCell>
        <mxCell id="XqiXbIV1NQWLEeTD5v8z-80" value="N" style="resizable=0;html=1;whiteSpace=wrap;align=right;verticalAlign=bottom;" connectable="0" vertex="1" parent="XqiXbIV1NQWLEeTD5v8z-79">
          <mxGeometry x="1" relative="1" as="geometry">
            <mxPoint x="20" y="-9" as="offset" />
          </mxGeometry>
        </mxCell>
        <mxCell id="XqiXbIV1NQWLEeTD5v8z-81" value="" style="endArrow=none;html=1;rounded=0;entryX=0.5;entryY=1;entryDx=0;entryDy=0;exitX=0.5;exitY=0;exitDx=0;exitDy=0;" edge="1" parent="1" source="XqiXbIV1NQWLEeTD5v8z-22" target="XqiXbIV1NQWLEeTD5v8z-11">
          <mxGeometry relative="1" as="geometry">
            <mxPoint x="930" y="460" as="sourcePoint" />
            <mxPoint x="1070" y="530" as="targetPoint" />
          </mxGeometry>
        </mxCell>
        <mxCell id="XqiXbIV1NQWLEeTD5v8z-82" value="1" style="resizable=0;html=1;whiteSpace=wrap;align=right;verticalAlign=bottom;" connectable="0" vertex="1" parent="XqiXbIV1NQWLEeTD5v8z-81">
          <mxGeometry x="1" relative="1" as="geometry">
            <mxPoint x="-30" y="20" as="offset" />
          </mxGeometry>
        </mxCell>
        <mxCell id="XqiXbIV1NQWLEeTD5v8z-83" value="" style="shape=link;html=1;rounded=0;exitX=0.5;exitY=1;exitDx=0;exitDy=0;entryX=0.5;entryY=0;entryDx=0;entryDy=0;" edge="1" parent="1" source="XqiXbIV1NQWLEeTD5v8z-22" target="XqiXbIV1NQWLEeTD5v8z-16">
          <mxGeometry relative="1" as="geometry">
            <mxPoint x="910" y="530" as="sourcePoint" />
            <mxPoint x="1070" y="530" as="targetPoint" />
          </mxGeometry>
        </mxCell>
        <mxCell id="XqiXbIV1NQWLEeTD5v8z-84" value="N" style="resizable=0;html=1;whiteSpace=wrap;align=right;verticalAlign=bottom;" connectable="0" vertex="1" parent="XqiXbIV1NQWLEeTD5v8z-83">
          <mxGeometry x="1" relative="1" as="geometry">
            <mxPoint x="20" as="offset" />
          </mxGeometry>
        </mxCell>
        <mxCell id="XqiXbIV1NQWLEeTD5v8z-85" value="" style="shape=link;html=1;rounded=0;entryX=0.5;entryY=1;entryDx=0;entryDy=0;exitX=0.5;exitY=0;exitDx=0;exitDy=0;" edge="1" parent="1" source="XqiXbIV1NQWLEeTD5v8z-23" target="XqiXbIV1NQWLEeTD5v8z-11">
          <mxGeometry relative="1" as="geometry">
            <mxPoint x="910" y="530" as="sourcePoint" />
            <mxPoint x="1070" y="530" as="targetPoint" />
          </mxGeometry>
        </mxCell>
        <mxCell id="XqiXbIV1NQWLEeTD5v8z-86" value="1" style="resizable=0;html=1;whiteSpace=wrap;align=right;verticalAlign=bottom;" connectable="0" vertex="1" parent="XqiXbIV1NQWLEeTD5v8z-85">
          <mxGeometry x="1" relative="1" as="geometry">
            <mxPoint x="60" y="20" as="offset" />
          </mxGeometry>
        </mxCell>
        <mxCell id="XqiXbIV1NQWLEeTD5v8z-87" value="" style="shape=link;html=1;rounded=0;entryX=0.5;entryY=0;entryDx=0;entryDy=0;exitX=0.5;exitY=1;exitDx=0;exitDy=0;" edge="1" parent="1" source="XqiXbIV1NQWLEeTD5v8z-23" target="XqiXbIV1NQWLEeTD5v8z-17">
          <mxGeometry relative="1" as="geometry">
            <mxPoint x="910" y="530" as="sourcePoint" />
            <mxPoint x="1070" y="530" as="targetPoint" />
          </mxGeometry>
        </mxCell>
        <mxCell id="XqiXbIV1NQWLEeTD5v8z-88" value="1" style="resizable=0;html=1;whiteSpace=wrap;align=right;verticalAlign=bottom;" connectable="0" vertex="1" parent="XqiXbIV1NQWLEeTD5v8z-87">
          <mxGeometry x="1" relative="1" as="geometry">
            <mxPoint x="30" as="offset" />
          </mxGeometry>
        </mxCell>
      </root>
    </mxGraphModel>
  </diagram>
</mxfile>
